<?xml version="1.0" encoding="UTF-8" standalone="no"?>
<svg
   xmlns:dc="http://purl.org/dc/elements/1.1/"
   xmlns:cc="http://creativecommons.org/ns#"
   xmlns:rdf="http://www.w3.org/1999/02/22-rdf-syntax-ns#"
   xmlns:svg="http://www.w3.org/2000/svg"
   xmlns="http://www.w3.org/2000/svg"
   xmlns:sodipodi="http://sodipodi.sourceforge.net/DTD/sodipodi-0.dtd"
   xmlns:inkscape="http://www.inkscape.org/namespaces/inkscape"
   version="1.1"
   id="svg2"
   xml:space="preserve"
   width="1066.6667"
   height="1066.6667"
   viewBox="0 0 1066.6667 1066.6667"
   sodipodi:docname="pattern3-09.eps"><metadata
     id="metadata8"><rdf:RDF><cc:Work
         rdf:about=""><dc:format>image/svg+xml</dc:format><dc:type
           rdf:resource="http://purl.org/dc/dcmitype/StillImage" /></cc:Work></rdf:RDF></metadata><defs
     id="defs6" /><sodipodi:namedview
     pagecolor="#ffffff"
     bordercolor="#666666"
     borderopacity="1"
     objecttolerance="10"
     gridtolerance="10"
     guidetolerance="10"
     inkscape:pageopacity="0"
     inkscape:pageshadow="2"
     inkscape:window-width="640"
     inkscape:window-height="480"
     id="namedview4" /><g
     id="g10"
     inkscape:groupmode="layer"
     inkscape:label="ink_ext_XXXXXX"
     transform="matrix(1.3333333,0,0,-1.3333333,0,1066.6667)"><g
       id="g12"
       transform="scale(0.1)"><path
         d="M 8000,0 H 0 V 8000 H 8000 V 0"
         style="fill:#ffffff;fill-opacity:1;fill-rule:nonzero;stroke:none"
         id="path14" /><path
         d="m 7668.04,7021.69 -305.95,128.29 125.91,307.75 180.04,87.64 180.05,-87.64 125.89,-307.75 z m 305.94,-171.68 -125.89,-307.75 -180.05,-87.63 -180.04,87.63 -125.91,307.75 305.95,128.3 z m -428.61,-518.05 -87.63,-180.05 -307.75,-125.89 -128.3,305.94 128.3,305.95 307.75,-125.91 z m -87.63,-483.87 87.63,-180.05 -87.63,-180.05 -307.75,-125.9 -128.3,305.95 128.3,305.94 z m 210.3,-302.72 180.05,-87.64 125.89,-307.75 -305.94,-128.29 -305.95,128.29 125.91,307.75 z m 305.94,-695.36 -125.89,-307.75 -180.05,-87.63 -180.04,87.63 -125.91,307.75 305.95,128.3 z m -428.61,-518.05 -87.63,-180.05 -307.75,-125.89 -128.3,305.94 128.3,305.94 307.75,-125.9 z m -87.63,-483.87 87.63,-180.05 -87.63,-180.04 -307.75,-125.91 -128.3,305.95 128.3,305.94 z m 210.3,-302.72 180.05,-87.63 125.89,-307.76 -305.94,-128.29 -305.95,128.29 125.91,307.76 z m 305.94,-695.36 -125.89,-307.74 -180.05,-87.64 -180.04,87.64 -125.91,307.74 305.95,128.3 z m -428.61,-518.05 -87.63,-180.05 -307.75,-125.89 -128.3,305.94 128.3,305.94 307.75,-125.89 z m -87.63,-483.87 87.63,-180.05 -87.63,-180.04 -307.75,-125.91 -128.3,305.95 128.3,305.94 z m 210.3,-302.72 180.05,-87.63 125.89,-307.76 -305.94,-128.29 -305.95,128.29 125.91,307.76 z M 7973.98,850.012 7848.09,542.27 7668.04,454.629 7488,542.27 7362.09,850.012 7668.04,978.309 Z M 7545.37,331.961 7457.74,151.91 7149.99,26.0195 l -128.3,305.9415 128.3,305.937 307.75,-125.886 z m -673.8,357.98 -307.38,-125.742 125.75,307.371 -306.26,128.43 306.26,128.43 -125.75,307.38 307.38,-125.75 128.43,306.26 128.43,-306.26 307.38,125.75 L 7310.06,1128.43 7616.32,1000 7310.06,871.57 7435.81,564.191 7128.43,689.941 7000,383.68 Z M 6850.01,26.0195 6542.26,151.91 l -87.63,180.051 87.64,180.051 307.74,125.886 128.3,-305.937 z M 6331.96,454.629 6151.91,542.27 6026.02,850.012 6331.96,978.309 6637.91,850.012 6512,542.27 Z M 5719.76,1000 6000,1117.52 6280.24,1000 6000,882.48 Z M 5848.09,542.27 5668.04,454.629 5488,542.27 5362.09,850.012 5668.04,978.309 5973.98,850.012 Z M 5545.37,331.961 5457.74,151.91 5149.99,26.0195 l -128.3,305.9415 128.3,305.937 307.75,-125.886 z m -673.8,357.98 -307.38,-125.742 125.75,307.371 -306.26,128.43 306.26,128.43 -125.75,307.38 307.38,-125.75 128.43,306.26 128.43,-306.26 307.38,125.75 L 5310.06,1128.43 5616.32,1000 5310.06,871.57 5435.81,564.191 5128.43,689.941 5000,383.68 Z M 4850.01,26.0195 4542.26,151.91 l -87.63,180.051 87.64,180.051 307.74,125.886 128.3,-305.937 z M 4331.96,454.629 4151.91,542.27 4026.02,850.012 4331.96,978.309 4637.91,850.012 4512,542.27 Z M 3719.76,1000 4000,1117.52 4280.24,1000 4000,882.48 Z M 3848.09,542.27 3668.04,454.629 3488,542.27 3362.09,850.012 3668.04,978.309 3973.98,850.012 Z M 3545.37,331.961 3457.74,151.91 3149.99,26.0195 l -128.3,305.9415 128.3,305.937 307.75,-125.886 z m -673.8,357.98 -307.38,-125.742 125.75,307.371 -306.26,128.43 306.26,128.43 -125.75,307.38 307.38,-125.75 128.43,306.26 128.43,-306.26 307.38,125.75 L 3310.06,1128.43 3616.32,1000 3310.06,871.57 3435.81,564.191 3128.43,689.941 3000,383.68 Z M 2850.01,26.0195 2542.26,151.91 l -87.63,180.051 87.64,180.051 307.74,125.886 128.3,-305.937 z M 2331.96,454.629 2151.91,542.27 2026.02,850.012 2331.96,978.309 2637.91,850.012 2512,542.27 Z M 1719.76,1000 2000,1117.52 2280.24,1000 2000,882.48 Z M 1848.09,542.27 1668.04,454.629 1488,542.27 1362.09,850.012 1668.04,978.309 1973.98,850.012 Z M 1545.37,331.961 1457.74,151.91 1149.99,26.0195 1021.69,331.961 1149.99,637.898 1457.74,512.012 Z M 871.566,689.941 564.191,564.199 689.938,871.57 383.684,1000 689.938,1128.43 564.191,1435.81 871.566,1310.06 1000,1616.32 1128.43,1310.06 1435.81,1435.81 1310.06,1128.43 1616.32,1000 1310.06,871.57 1435.81,564.191 1128.43,689.941 1000,383.68 Z M 850.016,26.0195 542.262,151.91 454.633,331.961 542.266,512.012 850.016,637.898 978.313,331.961 Z M 331.965,454.629 151.914,542.27 26.0156,850.012 331.965,978.309 637.906,850.012 512.004,542.27 Z m -305.9494,695.351 125.8984,307.75 180.051,87.64 180.039,-87.63 125.902,-307.76 -305.941,-128.29 z m 428.6174,518.06 87.629,180.05 307.754,125.89 L 978.313,1668.04 850.016,1362.09 542.262,1488 Z m 87.629,483.87 -87.629,180.05 87.633,180.05 307.75,125.89 128.297,-305.94 -128.297,-305.94 z m -210.297,302.72 -180.051,87.64 -125.8984,307.74 305.9494,128.3 305.941,-128.3 -125.902,-307.74 z m -305.9494,695.35 125.8984,307.75 180.051,87.64 180.039,-87.63 125.902,-307.76 -305.941,-128.29 z m 428.6174,518.06 87.629,180.05 307.754,125.89 L 978.313,3668.04 850.016,3362.09 542.262,3488 Z m 87.629,483.87 -87.629,180.05 87.629,180.04 307.754,125.9 128.297,-305.94 -128.297,-305.94 z m -210.297,302.72 -180.051,87.64 -125.8984,307.74 305.9494,128.3 305.941,-128.3 -125.902,-307.75 z m -305.9494,695.35 125.8984,307.75 180.051,87.64 180.039,-87.64 125.902,-307.75 -305.941,-128.29 z m 428.6174,518.06 87.633,180.05 307.75,125.89 128.297,-305.94 -128.297,-305.95 -307.754,125.9 z m 87.629,483.87 -87.629,180.05 87.629,180.04 307.754,125.91 128.297,-305.95 -128.297,-305.94 z m -210.297,302.72 -180.051,87.64 -125.8984,307.74 305.9494,128.3 305.941,-128.3 -125.902,-307.75 z m -305.9494,695.35 125.8984,307.75 180.051,87.64 180.039,-87.64 125.902,-307.75 -305.941,-128.29 z m 428.6174,518.06 87.633,180.05 307.75,125.89 128.297,-305.94 -128.297,-305.95 -307.754,125.9 z M 1128.43,7310.06 1435.81,7435.8 1310.06,7128.43 1616.32,7000 1310.06,6871.57 1435.81,6564.19 1128.43,6689.94 1000,6383.68 871.566,6689.94 564.191,6564.19 689.938,6871.57 383.684,7000 689.938,7128.43 564.191,7435.8 871.566,7310.06 1000,7616.32 Z m 21.56,663.92 307.75,-125.89 87.63,-180.05 -87.63,-180.05 -307.75,-125.9 -128.3,305.95 z m 518.05,-428.61 180.05,-87.64 125.89,-307.75 -305.94,-128.29 -305.95,128.29 125.91,307.75 z M 2280.24,7000 2000,6882.48 1719.76,7000 2000,7117.52 Z m -128.33,457.73 180.05,87.64 180.04,-87.64 125.91,-307.75 -305.95,-128.29 -305.94,128.29 z m 302.72,210.31 87.64,180.05 307.74,125.89 128.3,-305.94 -128.3,-305.95 -307.75,125.9 z m 673.8,-357.98 307.38,125.74 -125.75,-307.37 306.26,-128.43 -306.26,-128.43 125.75,-307.38 -307.38,125.75 -128.43,-306.26 -128.43,306.26 -307.38,-125.75 125.75,307.38 -306.26,128.43 306.26,128.43 -125.75,307.37 307.38,-125.74 128.43,306.26 z m 21.56,663.92 307.75,-125.89 87.63,-180.05 -87.63,-180.05 -307.75,-125.9 -128.3,305.95 z m 518.05,-428.61 180.05,-87.64 125.89,-307.75 -305.94,-128.29 -305.95,128.29 125.91,307.75 z M 4280.24,7000 4000,6882.48 3719.76,7000 4000,7117.52 Z m -128.33,457.73 180.05,87.64 180.04,-87.64 125.91,-307.75 -305.95,-128.29 -305.94,128.29 z m 302.72,210.31 87.64,180.05 307.74,125.89 128.3,-305.94 -128.3,-305.95 -307.75,125.9 z m 673.8,-357.98 307.38,125.74 -125.75,-307.37 306.26,-128.43 -306.26,-128.43 125.75,-307.38 -307.38,125.75 -128.43,-306.26 -128.43,306.26 -307.38,-125.75 125.75,307.38 -306.26,128.43 306.26,128.43 -125.75,307.37 307.38,-125.74 128.43,306.26 z m 21.56,663.92 307.75,-125.89 87.63,-180.05 -87.63,-180.05 -307.75,-125.9 -128.3,305.95 z m 518.05,-428.61 180.05,-87.64 125.89,-307.75 -305.94,-128.29 -305.95,128.29 125.91,307.75 z M 6280.24,7000 6000,6882.48 5719.76,7000 6000,7117.52 Z m -128.33,457.73 180.05,87.64 180.04,-87.64 125.91,-307.75 -305.95,-128.29 -305.94,128.29 z m 302.72,210.31 87.64,180.05 307.74,125.89 128.3,-305.94 -128.3,-305.95 -307.75,125.9 z M 6882.48,6000 7000,6280.24 7117.52,6000 7000,5719.76 Z m -10.91,-1310.06 -307.38,-125.75 125.75,307.38 -306.26,128.43 306.26,128.43 -125.75,307.37 307.38,-125.74 128.43,306.26 128.43,-306.26 307.38,125.75 L 7310.06,5128.43 7616.32,5000 7310.06,4871.57 7435.81,4564.19 7128.43,4689.94 7000,4383.68 Z M 6882.48,4000 7000,4280.24 7117.52,4000 7000,3719.76 Z m -10.91,-1310.06 -307.38,-125.74 125.75,307.37 -306.26,128.43 306.26,128.43 -125.75,307.38 307.38,-125.75 128.43,306.26 128.43,-306.26 307.38,125.75 L 7310.06,3128.43 7616.32,3000 7310.06,2871.57 7435.81,2564.19 7128.43,2689.94 7000,2383.68 Z M 6882.48,2000 7000,2280.24 7117.52,2000 7000,1719.76 Z m -427.85,-331.96 87.63,180.05 307.75,125.89 128.3,-305.94 -128.3,-305.95 -307.75,125.91 z m -302.72,-210.31 180.05,87.64 180.04,-87.63 125.91,-307.76 -305.95,-128.29 -305.94,128.29 z m -272.58,29.29 -211.29,102.83 -152.33,-74.14 74.14,152.33 -102.83,211.29 -294.99,120.67 294.99,120.67 102.83,211.29 -74.14,152.33 152.33,-74.14 211.29,102.84 120.67,294.98 120.67,-294.98 211.29,-102.84 152.33,74.14 -74.14,-152.33 102.83,-211.29 294.99,-120.67 -294.99,-120.67 -102.83,-211.29 74.14,-152.33 -152.33,74.14 L 6120.67,1487.02 6000,1192.03 Z m -391.33,-29.28 180.04,87.63 180.05,-87.63 125.89,-307.76 -305.94,-128.29 -305.95,128.29 z m -338.01,516.24 307.75,-125.89 87.63,-180.05 -87.63,-180.04 -307.75,-125.91 -128.3,305.95 z M 4882.48,2000 5000,2280.24 5117.52,2000 5000,1719.76 Z m -427.85,-331.96 87.63,180.05 307.75,125.89 128.3,-305.94 -128.3,-305.95 -307.75,125.91 z m -302.72,-210.31 180.05,87.64 180.04,-87.63 125.91,-307.76 -305.95,-128.29 -305.94,128.29 z m -272.58,29.29 -211.29,102.83 -152.33,-74.14 74.14,152.33 -102.83,211.29 -294.99,120.67 294.99,120.67 102.83,211.29 -74.14,152.33 152.33,-74.14 211.29,102.84 120.67,294.98 120.67,-294.98 211.29,-102.84 152.33,74.14 -74.14,-152.33 102.83,-211.29 294.99,-120.67 -294.99,-120.67 -102.83,-211.29 74.14,-152.33 -152.33,74.14 L 4120.67,1487.02 4000,1192.03 Z m -391.33,-29.28 180.04,87.63 180.05,-87.63 125.89,-307.76 -305.94,-128.29 -305.95,128.29 z m -338.01,516.24 307.75,-125.89 87.63,-180.05 -87.63,-180.04 -307.75,-125.91 -128.3,305.95 z M 2882.48,2000 3000,2280.24 3117.52,2000 3000,1719.76 Z m -427.85,-331.96 87.63,180.05 307.75,125.89 128.3,-305.94 -128.3,-305.95 -307.75,125.91 z m -302.72,-210.31 180.05,87.64 180.04,-87.63 125.91,-307.76 -305.95,-128.29 -305.94,128.29 z m -272.58,29.29 -211.29,102.83 -152.33,-74.14 74.14,152.33 -102.83,211.29 -294.99,120.67 294.99,120.67 102.83,211.29 -74.14,152.33 152.33,-74.14 211.29,102.84 120.67,294.98 120.67,-294.98 211.29,-102.84 152.33,74.14 -74.14,-152.33 102.83,-211.29 294.99,-120.67 -294.99,-120.67 -102.83,-211.29 74.14,-152.33 -152.33,74.14 L 2120.67,1487.02 2000,1192.03 Z m -391.33,-29.28 180.04,87.63 180.05,-87.63 125.89,-307.76 -305.94,-128.29 -305.95,128.29 z m -338.01,516.24 307.75,-125.89 87.63,-180.05 -87.63,-180.04 -307.75,-125.91 -128.3,305.95 z M 1117.52,2000 1000,1719.76 882.477,2000 1000,2280.24 Z m 10.91,1310.06 307.38,125.75 L 1310.06,3128.43 1616.32,3000 1310.06,2871.57 1435.81,2564.19 1128.43,2689.94 1000,2383.68 871.566,2689.94 564.191,2564.2 689.938,2871.57 383.684,3000 689.938,3128.43 564.191,3435.81 871.566,3310.06 1000,3616.32 Z M 1117.52,4000 1000,3719.76 882.477,4000 1000,4280.24 Z m 10.91,1310.06 307.38,125.75 L 1310.06,5128.43 1616.32,5000 1310.06,4871.57 1435.81,4564.19 1128.43,4689.94 1000,4383.68 871.566,4689.94 564.191,4564.19 689.938,4871.57 383.684,5000 689.938,5128.43 564.191,5435.8 871.566,5310.06 1000,5616.32 Z M 1117.52,6000 1000,5719.76 882.477,6000 1000,6280.24 Z m 427.85,331.96 -87.63,-180.05 -307.75,-125.89 -128.3,305.94 128.3,305.95 307.75,-125.91 z m 302.72,210.3 -180.05,-87.63 -180.04,87.63 -125.91,307.75 305.95,128.3 305.94,-128.3 z m 272.58,-29.28 211.29,-102.83 152.33,74.14 -74.14,-152.33 102.83,-211.29 294.99,-120.67 -294.99,-120.67 -102.83,-211.29 74.14,-152.33 -152.33,74.14 -211.29,-102.84 -120.67,-294.98 -120.67,294.98 -211.29,102.84 -152.33,-74.15 74.14,152.34 -102.83,211.29 -294.99,120.67 294.99,120.67 102.83,211.29 -74.14,152.33 152.33,-74.14 211.29,102.83 120.67,294.99 z m 391.33,29.28 -180.04,-87.63 -180.05,87.64 -125.89,307.74 305.94,128.3 305.95,-128.3 z m 338.01,-516.24 -307.75,125.89 -87.63,180.05 87.63,180.04 307.75,125.91 128.3,-305.95 z M 3117.52,6000 3000,5719.76 2882.48,6000 3000,6280.24 Z m 427.85,331.96 -87.63,-180.05 -307.75,-125.89 -128.3,305.94 128.3,305.95 307.75,-125.91 z m 302.72,210.3 -180.05,-87.63 -180.04,87.63 -125.91,307.75 305.95,128.3 305.94,-128.3 z m 272.58,-29.28 211.29,-102.83 152.33,74.14 -74.14,-152.33 102.83,-211.29 294.99,-120.67 -294.99,-120.67 -102.83,-211.29 74.14,-152.33 -152.33,74.14 -211.29,-102.84 -120.67,-294.98 -120.67,294.98 -211.29,102.84 -152.33,-74.15 74.14,152.34 -102.83,211.29 -294.99,120.67 294.99,120.67 102.83,211.29 -74.14,152.33 152.33,-74.14 211.29,102.83 120.67,294.99 z m 391.33,29.28 -180.04,-87.63 -180.05,87.64 -125.89,307.74 305.94,128.3 305.95,-128.3 z m 338.01,-516.24 -307.75,125.89 -87.63,180.05 87.63,180.04 307.75,125.91 128.3,-305.95 z M 5117.52,6000 5000,5719.76 4882.48,6000 5000,6280.24 Z m 427.85,331.96 -87.63,-180.05 -307.75,-125.89 -128.3,305.94 128.3,305.95 307.75,-125.91 z m 302.72,210.3 -180.05,-87.63 -180.04,87.63 -125.91,307.75 305.95,128.3 305.94,-128.3 z m 272.58,-29.28 211.29,-102.83 152.33,74.14 -74.14,-152.33 102.83,-211.29 294.99,-120.67 -294.99,-120.67 -102.83,-211.29 74.14,-152.33 -152.33,74.14 -211.29,-102.84 -120.67,-294.98 -120.67,294.98 -211.29,102.84 -152.33,-74.15 74.14,152.34 -102.83,211.29 -294.99,120.67 294.99,120.67 102.83,211.29 -74.14,152.33 152.33,-74.14 211.29,102.83 120.67,294.99 z m 391.33,29.28 -180.04,-87.63 -180.05,87.64 -125.89,307.74 305.94,128.3 305.95,-128.3 z m 30.26,-390.35 -87.63,180.05 87.63,180.04 307.75,125.91 128.3,-305.95 -128.3,-305.94 z m -87.63,-483.87 87.64,180.05 307.74,125.89 128.3,-305.94 -128.3,-305.95 -307.75,125.9 z m -428.61,-518.06 125.89,307.75 180.05,87.64 180.04,-87.64 125.91,-307.75 -305.95,-128.29 z m 485.98,-607.72 -180.04,-87.63 -180.05,87.64 -125.89,307.74 305.94,128.3 305.95,-128.3 z m 30.26,-390.35 -87.63,180.05 87.63,180.04 307.75,125.9 128.3,-305.94 -128.3,-305.94 z m -87.63,-483.87 87.63,180.05 307.75,125.89 128.3,-305.94 -128.3,-305.95 -307.75,125.91 z m -428.61,-518.06 125.89,307.75 180.05,87.64 180.04,-87.63 125.91,-307.76 -305.95,-128.29 z M 5719.76,3000 6000,3117.52 6280.24,3000 6000,2882.48 Z m -357.67,-149.99 305.95,128.3 305.94,-128.3 -125.89,-307.74 -180.05,-87.64 -180.04,87.64 z m -212.1,-212.11 307.75,-125.89 87.63,-180.05 -87.63,-180.05 -307.75,-125.89 -128.3,305.94 z m -278.42,52.04 -307.38,-125.74 125.75,307.37 -306.26,128.43 306.26,128.43 -125.75,307.38 307.38,-125.75 128.43,306.26 128.43,-306.26 307.38,125.75 L 5310.06,3128.43 5616.32,3000 5310.06,2871.57 5435.81,2564.19 5128.43,2689.94 5000,2383.68 Z m -329.3,-177.93 307.74,125.89 128.3,-305.94 -128.3,-305.94 -307.75,125.89 -87.63,180.05 z m -210.31,466.3 305.95,-128.3 -125.91,-307.74 -180.04,-87.64 -180.05,87.64 -125.89,307.74 z M 3719.76,3000 4000,3117.52 4280.24,3000 4000,2882.48 Z m -357.67,-149.99 305.95,128.3 305.94,-128.3 -125.89,-307.74 -180.05,-87.64 -180.04,87.64 z m -212.1,-212.11 307.75,-125.89 87.63,-180.05 -87.63,-180.05 -307.75,-125.89 -128.3,305.94 z m -278.42,52.04 -307.38,-125.74 125.75,307.37 -306.26,128.43 306.26,128.43 -125.75,307.38 307.38,-125.75 128.43,306.26 128.43,-306.26 307.38,125.75 L 3310.06,3128.43 3616.32,3000 3310.06,2871.57 3435.81,2564.19 3128.43,2689.94 3000,2383.68 Z m -329.3,-177.93 307.74,125.89 128.3,-305.94 -128.3,-305.94 -307.75,125.89 -87.63,180.05 z m -210.31,466.3 305.95,-128.3 -125.91,-307.74 -180.04,-87.64 -180.05,87.64 -125.89,307.74 z M 1719.76,3000 2000,3117.52 2280.24,3000 2000,2882.48 Z m -231.76,457.74 180.04,87.63 180.05,-87.63 125.89,-307.76 -305.94,-128.29 -305.95,128.29 z m -30.26,390.35 87.63,-180.05 -87.63,-180.04 -307.75,-125.91 -128.3,305.95 128.3,305.94 z m 87.63,483.87 -87.63,-180.05 -307.75,-125.89 -128.3,305.94 128.3,305.94 307.75,-125.9 z m 428.61,518.05 -125.89,-307.75 -180.05,-87.63 -180.04,87.63 -125.91,307.75 305.95,128.3 z M 2280.24,5000 2000,4882.48 1719.76,5000 2000,5117.52 Z m 357.67,149.98 -305.95,-128.29 -305.94,128.29 125.89,307.75 180.05,87.64 180.04,-87.64 z m 212.1,212.11 -307.75,125.9 -87.63,180.05 87.64,180.05 307.74,125.89 128.3,-305.94 z m 278.42,-52.03 307.38,125.75 -125.75,-307.38 306.26,-128.43 -306.26,-128.43 125.75,-307.38 -307.38,125.75 -128.43,-306.26 -128.43,306.26 -307.38,-125.75 125.75,307.38 -306.26,128.43 306.26,128.43 -125.75,307.37 307.38,-125.74 128.43,306.26 z m 329.31,177.93 -307.75,-125.9 -128.3,305.95 128.3,305.94 307.75,-125.89 87.63,-180.05 z m 210.3,-466.3 -305.95,128.29 125.91,307.75 180.04,87.64 180.05,-87.64 125.89,-307.75 z M 4280.24,5000 4000,4882.48 3719.76,5000 4000,5117.52 Z m 357.67,149.98 -305.95,-128.29 -305.94,128.29 125.89,307.75 180.05,87.64 180.04,-87.64 z m 212.1,212.11 -307.75,125.9 -87.63,180.05 87.64,180.05 307.74,125.89 128.3,-305.94 z m 278.42,-52.03 307.38,125.75 -125.75,-307.38 306.26,-128.43 -306.26,-128.43 125.75,-307.38 -307.38,125.75 -128.43,-306.26 -128.43,306.26 -307.38,-125.75 125.75,307.38 -306.26,128.43 306.26,128.43 -125.75,307.37 307.38,-125.74 128.43,306.26 z m 329.31,177.93 -307.75,-125.9 -128.3,305.95 128.3,305.94 307.75,-125.89 87.63,-180.05 z m 210.3,-466.3 -305.95,128.29 125.91,307.75 180.04,87.64 180.05,-87.64 125.89,-307.75 z M 5719.76,5000 6000,5117.52 6280.24,5000 6000,4882.48 Z m 159.57,-1512.98 -211.29,102.83 -152.33,-74.14 74.14,152.33 -102.83,211.29 -294.99,120.67 294.99,120.67 102.83,211.29 -74.14,152.33 152.33,-74.14 211.29,102.83 120.67,294.99 120.67,-294.99 211.29,-102.83 152.33,74.14 -74.14,-152.33 102.83,-211.29 294.99,-120.67 -294.99,-120.67 -102.83,-211.29 74.14,-152.33 -152.33,74.14 L 6120.67,3487.02 6000,3192.03 Z m -391.33,-29.28 180.04,87.63 180.05,-87.63 125.89,-307.76 -305.94,-128.29 -305.95,128.29 z m -338.01,516.24 307.75,-125.89 87.63,-180.05 -87.63,-180.04 -307.75,-125.91 -128.3,305.95 z m 212.1,876.03 305.95,128.3 305.94,-128.3 -125.89,-307.75 -180.05,-87.63 -180.04,87.63 z m 183.28,-518.05 -87.63,-180.05 -307.75,-125.89 -128.3,305.94 128.3,305.94 307.75,-125.9 z M 4882.48,4000 5000,4280.24 5117.52,4000 5000,3719.76 Z m -427.85,-331.96 87.63,180.05 307.75,125.89 128.3,-305.94 -128.3,-305.95 -307.75,125.91 z m -302.72,-210.31 180.05,87.64 180.04,-87.63 125.91,-307.76 -305.95,-128.29 -305.94,128.29 z m 390.35,1054.27 307.75,125.9 128.3,-305.94 -128.3,-305.94 -307.75,125.89 -87.63,180.05 z m -30.26,30.26 -180.04,-87.63 -180.05,87.64 -125.89,307.74 305.94,128.3 305.95,-128.3 z m -632.67,-1055.24 -211.29,102.83 -152.33,-74.14 74.14,152.33 -102.83,211.29 -294.99,120.67 294.99,120.67 102.83,211.29 -74.14,152.33 152.33,-74.14 211.29,102.83 120.67,294.99 120.67,-294.99 211.29,-102.83 152.33,74.14 -74.14,-152.33 102.83,-211.29 294.99,-120.67 -294.99,-120.67 -102.83,-211.29 74.14,-152.33 -152.33,74.14 L 4120.67,3487.02 4000,3192.03 Z m -391.33,-29.28 180.04,87.63 180.05,-87.63 125.89,-307.76 -305.94,-128.29 -305.95,128.29 z m -338.01,516.24 307.75,-125.89 87.63,-180.05 -87.63,-180.04 -307.75,-125.91 -128.3,305.95 z m 212.1,876.03 305.95,128.3 305.94,-128.3 -125.89,-307.75 -180.05,-87.63 -180.04,87.63 z m 183.28,-518.05 -87.63,-180.05 -307.75,-125.89 -128.3,305.94 128.3,305.94 307.75,-125.9 z M 2882.48,4000 3000,4280.24 3117.52,4000 3000,3719.76 Z m -427.85,-331.96 87.63,180.05 307.75,125.89 128.3,-305.94 -128.3,-305.95 -307.75,125.91 z m -302.72,-210.31 180.05,87.64 180.04,-87.63 125.91,-307.76 -305.95,-128.29 -305.94,128.29 z m -31.24,1055.25 211.29,-102.83 152.33,74.14 -74.14,-152.33 102.83,-211.29 294.99,-120.67 -294.99,-120.67 -102.83,-211.29 74.14,-152.33 -152.33,74.14 -211.29,-102.83 -120.67,-294.99 -120.67,294.99 -211.29,102.83 -152.33,-74.14 74.14,152.33 -102.83,211.29 -294.99,120.67 294.99,120.67 102.83,211.29 -74.14,152.33 152.33,-74.14 211.29,102.83 120.67,294.99 z m 421.59,-0.98 307.75,125.9 128.3,-305.94 -128.3,-305.94 -307.75,125.89 -87.63,180.05 z m -30.26,30.26 -180.04,-87.63 -180.05,87.64 -125.89,307.74 305.94,128.3 305.95,-128.3 z m -1054.26,945.73 -307.75,-125.9 -128.3,305.95 128.3,305.94 307.75,-125.89 87.63,-180.05 z m 30.26,-30.26 180.04,87.64 180.05,-87.64 125.89,-307.75 -305.94,-128.29 -305.95,128.29 z m 57.37,-3125.77 -87.63,-180.05 -307.75,-125.89 -128.3,305.94 128.3,305.94 307.75,-125.89 z m -183.28,518.05 305.95,128.3 305.94,-128.3 -125.89,-307.74 -180.05,-87.64 -180.04,87.64 z m 5180.18,-338 307.74,125.89 128.3,-305.94 -128.3,-305.94 -307.75,125.89 -87.63,180.05 z m -30.27,30.26 -180.04,-87.64 -180.05,87.64 -125.89,307.74 305.94,128.3 305.95,-128.3 z m 616.43,4767.79 307.38,125.74 -125.75,-307.37 306.26,-128.43 -306.26,-128.43 125.75,-307.38 -307.38,125.75 -128.43,-306.26 -128.43,306.26 -307.38,-125.75 125.75,307.38 -306.26,128.43 306.26,128.43 -125.75,307.37 307.38,-125.74 128.43,306.26 z m 21.56,663.92 307.75,-125.89 87.63,-180.05 -87.63,-180.05 -307.75,-125.9 -128.3,305.95 z m 850.01,-781.95 -120.67,294.98 -211.29,102.84 -152.33,-74.14 74.14,152.33 -102.83,211.29 -294.99,120.67 h -74.51 L 7000,7719.76 6882.48,8000 h -74.51 l -294.99,-120.67 -102.83,-211.29 74.14,-152.33 -152.33,74.14 -211.29,-102.84 -120.67,-294.98 -120.67,294.98 -211.29,102.84 -152.33,-74.14 74.14,152.33 -102.83,211.29 -294.99,120.67 h -74.51 L 5000,7719.76 4882.48,8000 h -74.51 l -294.99,-120.67 -102.83,-211.29 74.14,-152.33 -152.33,74.14 -211.29,-102.84 -120.67,-294.98 -120.67,294.98 -211.29,102.84 -152.33,-74.14 74.14,152.33 -102.83,211.29 -294.99,120.67 h -74.51 L 3000,7719.76 2882.48,8000 h -74.51 l -294.99,-120.67 -102.83,-211.29 74.14,-152.33 -152.33,74.14 -211.29,-102.84 -120.67,-294.98 -120.67,294.98 -211.29,102.84 -152.33,-74.14 74.14,152.33 -102.83,211.29 -294.99,120.67 h -74.51 L 1000,7719.76 882.477,8000 H 807.973 L 512.98,7879.33 410.152,7668.04 484.285,7515.71 331.965,7589.85 120.676,7487.01 0,7192.03 v -74.51 L 280.242,7000 0,6882.48 v -74.51 l 120.676,-294.99 211.289,-102.83 152.32,74.14 L 410.152,6331.96 512.98,6120.67 807.973,6000 512.98,5879.33 410.152,5668.04 484.285,5515.71 331.965,5589.85 120.676,5487.01 0,5192.03 v -74.51 L 280.242,5000 0,4882.48 v -74.51 l 120.676,-294.99 211.289,-102.83 152.32,74.14 L 410.152,4331.96 512.98,4120.67 807.973,4000 512.98,3879.33 410.152,3668.04 484.285,3515.71 331.965,3589.85 120.676,3487.02 0,3192.03 v -74.51 L 280.242,3000 0,2882.48 v -74.51 l 120.676,-294.98 211.289,-102.84 152.32,74.14 L 410.152,2331.96 512.98,2120.67 807.973,2000 512.98,1879.33 410.152,1668.04 484.285,1515.71 331.965,1589.85 120.676,1487.02 0,1192.03 v -74.51 L 280.242,1000 0,882.48 V 807.969 L 120.676,512.992 331.965,410.152 484.285,484.289 410.152,331.961 512.98,120.672 807.973,0 h 74.504 L 1000,280.238 1117.52,0 h 74.51 l 294.99,120.672 102.83,211.289 -74.14,152.328 152.33,-74.137 211.29,102.84 120.67,294.977 120.67,-294.977 211.29,-102.84 152.33,74.137 L 2410.15,331.961 2512.98,120.672 2807.97,0 h 74.51 L 3000,280.238 3117.52,0 h 74.51 l 294.99,120.672 102.83,211.289 -74.14,152.328 152.33,-74.137 211.29,102.84 120.67,294.977 120.67,-294.977 211.29,-102.84 152.33,74.137 L 4410.15,331.961 4512.98,120.672 4807.97,0 h 74.51 L 5000,280.238 5117.52,0 h 74.51 l 294.99,120.672 102.83,211.289 -74.14,152.328 152.33,-74.137 211.29,102.84 120.67,294.977 120.67,-294.977 211.29,-102.84 152.33,74.137 L 6410.15,331.961 6512.98,120.672 6807.97,0 h 74.51 L 7000,280.238 7117.52,0 h 74.51 l 294.99,120.672 102.83,211.289 -74.14,152.328 152.33,-74.137 211.29,102.84 L 8000,807.969 V 882.48 L 7719.76,1000 8000,1117.52 v 74.51 l -120.67,294.99 -211.29,102.83 -152.33,-74.14 74.14,152.33 -102.83,211.29 -294.99,120.67 294.99,120.67 102.83,211.29 -74.14,152.33 152.33,-74.14 211.29,102.84 120.67,294.98 v 74.51 L 7719.76,3000 8000,3117.52 v 74.51 l -120.67,294.99 -211.29,102.83 -152.33,-74.14 74.14,152.33 -102.83,211.29 -294.99,120.67 294.99,120.67 102.83,211.29 -74.14,152.33 152.33,-74.14 211.29,102.83 120.67,294.99 v 74.51 L 7719.76,5000 8000,5117.52 v 74.51 l -120.67,294.98 -211.29,102.84 -152.33,-74.15 74.14,152.34 -102.83,211.29 -294.99,120.67 294.99,120.67 102.83,211.29 -74.14,152.33 152.33,-74.14 211.29,102.83 120.67,294.99 v 74.51 L 7719.76,7000 8000,7117.52 v 74.51"
         style="fill:#a1a0b4;fill-opacity:1;fill-rule:nonzero;stroke:none"
         id="path16" /></g></g></svg>
